<svg id="레이어_1" data-name="레이어 1" xmlns="http://www.w3.org/2000/svg" xmlns:xlink="http://www.w3.org/1999/xlink" viewBox="0 0 6169.9 836.58"><defs><style>.cls-1{opacity:0.5;isolation:isolate;fill:url(#무제_그라디언트_16);}</style><linearGradient id="무제_그라디언트_16" x1="3086.4" x2="3086.4" y2="836.58" gradientUnits="userSpaceOnUse"><stop offset="0.03" stop-color="#ebd752" stop-opacity="0"/><stop offset="0.16" stop-color="#ebd752" stop-opacity="0.02"/><stop offset="0.29" stop-color="#ebd752" stop-opacity="0.07"/><stop offset="0.41" stop-color="#ebd752" stop-opacity="0.15"/><stop offset="0.54" stop-color="#ebd752" stop-opacity="0.26"/><stop offset="0.66" stop-color="#ebd752" stop-opacity="0.41"/><stop offset="0.79" stop-color="#ebd752" stop-opacity="0.6"/><stop offset="0.91" stop-color="#ebd752" stop-opacity="0.81"/><stop offset="1" stop-color="#ebd752"/></linearGradient></defs><title>mainwave03</title><path class="cls-1" d="M6171.35,0V692.9c-19.4,4.3-48.6,17.3-62.3,21.9-57,19.3-115.6,33.9-174.7,45-194.2,36.4-404.6,38.3-596.3-11-201.7-52-412.1-97.8-621-65.7-191.3,29.4-368.8,122.7-560.8,147-130,16.4-261.6.1-388.2-31-114-28-219.1-72.9-336.9-86.2-169.1-19.1-335.5,12.7-500.5,46.7-152.8,31.5-316.3,36.2-470.7,14.9a1147.38,1147.38,0,0,1-131.2-25.7c-201.7-52-412.1-97.8-621-65.7-191.3,29.4-368.8,122.7-560.8,147-130,16.4-261.6.1-388.2-31-120.4-29.6-236.4-88.9-361.2-94.3-133.8-5.8-265,1.1-396.1,30.6V0Z" transform="translate(-1.45)"/></svg>