<?xml version="1.0" encoding="utf-8"?>
<!-- Generator: Adobe Illustrator 19.0.0, SVG Export Plug-In . SVG Version: 6.00 Build 0)  -->
<svg version="1.1" id="레이어_1" xmlns="http://www.w3.org/2000/svg" xmlns:xlink="http://www.w3.org/1999/xlink" x="0px"
	 y="0px" viewBox="0 0 6172.8 1080" style="enable-background:new 0 0 6172.8 1080;" xml:space="preserve">
<style type="text/css">
	.st0{opacity:0.5;fill:#F5DF4E;}
</style>
<path id="XMLID_14_" class="st0" d="M6174.7,0v692.9c-19.4,4.3-48.6,17.3-62.3,21.9c-57,19.3-115.6,33.9-174.7,45
	c-194.2,36.4-404.6,38.3-596.3-11c-201.7-52-412.1-97.8-621-65.7c-191.3,29.4-368.8,122.7-560.8,147c-130,16.4-261.6,0.1-388.2-31
	c-114-28-219.1-72.9-336.9-86.2c-169.1-19.1-335.5,12.7-500.5,46.7c-152.8,31.5-316.3,36.2-470.7,14.9c-44.2-6.1-88-14.5-131.2-25.7
	c-201.7-52-412.1-97.8-621-65.7c-191.3,29.4-368.8,122.7-560.8,147c-130,16.4-261.6,0.1-388.2-31c-120.4-29.6-236.4-88.9-361.2-94.3
	c-133.8-5.8-265,1.1-396.1,30.6V0L6174.7,0z"/>
</svg>
