<svg id="레이어_1" data-name="레이어 1" xmlns="http://www.w3.org/2000/svg" xmlns:xlink="http://www.w3.org/1999/xlink" viewBox="0 0 6169.9 836.58"><defs><style>.cls-1{opacity:0.5;isolation:isolate;fill:url(#무제_그라디언트_13);}</style><linearGradient id="무제_그라디언트_13" x1="3087.75" x2="3087.75" y2="836.58" gradientUnits="userSpaceOnUse"><stop offset="0" stop-color="#ffc200" stop-opacity="0"/><stop offset="1" stop-color="#ffc200"/></linearGradient></defs><title>mainwave04</title><path class="cls-1" d="M2.8,0V692.9c19.4,4.3,48.6,17.3,62.3,21.9,57,19.3,115.6,33.9,174.7,45,194.2,36.4,404.6,38.3,596.3-11,201.7-52,412.1-97.8,621-65.7,191.3,29.4,368.8,122.7,560.8,147,130,16.4,261.6.1,388.2-31,114-28,219.1-72.9,336.9-86.2,169.1-19.1,335.5,12.7,500.5,46.7,152.8,31.5,316.3,36.2,470.7,14.9a1147.38,1147.38,0,0,0,131.2-25.7c201.7-52,412.1-97.8,621-65.7,191.3,29.4,368.8,122.7,560.8,147,130,16.4,261.6.1,388.2-31,120.4-29.6,236.4-88.9,361.2-94.3,133.8-5.8,265,1.1,396.1,30.6V0Z" transform="translate(-2.8)"/></svg>