<svg xmlns="http://www.w3.org/2000/svg" viewBox="0 0 533.46 163.59"><defs><style>.cls-1{fill:#fff;}</style></defs><title>자산 1</title><g id="레이어_2" data-name="레이어 2"><g id="레이어_1-2" data-name="레이어 1"><path class="cls-1" d="M67.35,23.65a32.91,32.91,0,0,1,3.24,14.7A32.44,32.44,0,0,1,67.35,53,28.74,28.74,0,0,1,59,63.37q-10.33,8-21.41,8H22V85.4a37,37,0,0,1-.19,4.3A10.26,10.26,0,0,1,20.67,93Q18.92,96.36,11,96.36q-8.71,0-10.21-4.61A20.68,20.68,0,0,1,0,85.28V16.18a34.82,34.82,0,0,1,.19-4.29,9.73,9.73,0,0,1,1.18-3.3q1.74-3.36,9.71-3.36H37.72q11,0,21.29,8A28.67,28.67,0,0,1,67.35,23.65ZM45.07,46.56c2.4-1.82,3.61-4.56,3.61-8.21s-1.21-6.42-3.61-8.28a12.07,12.07,0,0,0-7.47-2.81H22v22H37.72A12.06,12.06,0,0,0,45.07,46.56Z"/><path class="cls-1" d="M87.27,39.09q10.45-9.71,23.9-9.71A33.83,33.83,0,0,1,135,39q10.34,9.64,10.34,24.59A32.32,32.32,0,0,1,139.93,82a33.56,33.56,0,0,1-13,11.83,35.3,35.3,0,0,1-15.87,3.8,33.91,33.91,0,0,1-15.94-4,35.43,35.43,0,0,1-13-12,31.46,31.46,0,0,1-5.29-17.87Q76.81,48.8,87.27,39.09Zm15.56,33.55a13.21,13.21,0,0,0,8.1,3,13.55,13.55,0,0,0,8.21-3.11q4.11-3.1,4.11-9.21t-3.86-9.09a13.36,13.36,0,0,0-8.34-3,13,13,0,0,0-8.34,3.12q-3.87,3.11-3.86,9.15T102.83,72.64Z"/><path class="cls-1" d="M198,31.62a8.49,8.49,0,0,1,3.92,2.55Q203.43,36,203.43,40a19.69,19.69,0,0,1-2.37,8.72q-2.37,4.73-6.85,4.73a9.64,9.64,0,0,1-4.29-1,12.59,12.59,0,0,0-5.42-1,9.81,9.81,0,0,0-6.28,2.36,7.13,7.13,0,0,0-2.93,5.73V85.65a34.9,34.9,0,0,1-.19,4.3,10,10,0,0,1-1.18,3.3q-1.86,3.24-9.71,3.23c-4,0-6.85-.7-8.59-2.11A7.44,7.44,0,0,1,153.38,89V41.71a37.66,37.66,0,0,1,.18-4.3,10.35,10.35,0,0,1,1.06-3.17q1.74-3.36,9.71-3.36,7.47,0,9.34,2.86A7.2,7.2,0,0,1,175,37.85a21.49,21.49,0,0,1,1.81-2.12,22.61,22.61,0,0,1,5-3.36,14.55,14.55,0,0,1,6.78-2.12,33.71,33.71,0,0,1,4.92.31A30.09,30.09,0,0,1,198,31.62Z"/><path class="cls-1" d="M248.37,52.91l-8.09-.5V69.59a8.67,8.67,0,0,0,1.05,4.86c.71,1,2,1.49,4,1.49a41.36,41.36,0,0,1,4.48.19,8.8,8.8,0,0,1,3.3,1.18Q256,78.93,256,85.65q0,7.84-3.48,9.59a11.86,11.86,0,0,1-3.3,1.06,36.15,36.15,0,0,1-4.17.18q-13,0-19.67-5.85t-6.73-19.79V52.41a32.56,32.56,0,0,1-5.1.38A5.74,5.74,0,0,1,209,50.67q-1.8-2.12-1.8-7.22a31.71,31.71,0,0,1,.62-7.41,6.81,6.81,0,0,1,1.74-3.3,7.7,7.7,0,0,1,5-1.62l4.11.5V18.8a33.18,33.18,0,0,1,.19-4.23,7.8,7.8,0,0,1,1.18-3q1.62-3.12,9.59-3.11,8.46,0,10.08,4.6a23,23,0,0,1,.63,6.35v12.2q5.47-.5,8.27-.5a36.46,36.46,0,0,1,4.24.19,10.26,10.26,0,0,1,3.3,1.18q3.23,1.62,3.23,9.59T256,51.67a11.29,11.29,0,0,1-3.3,1A34.71,34.71,0,0,1,248.37,52.91Z"/><path class="cls-1" d="M304.52,31q8.58,0,10.08,4.73a21.16,21.16,0,0,1,.75,6.23,19.09,19.09,0,0,1-.81,6.16,5.85,5.85,0,0,1-2.56,3.3q-2.61,1.48-7.59,1.49l-8-.5V85.78c0,3.15-.39,5.5-1.18,7a5.82,5.82,0,0,1-3.61,3,21.84,21.84,0,0,1-6.29.75,19.09,19.09,0,0,1-6.16-.81,5.73,5.73,0,0,1-3.3-2.61,9.44,9.44,0,0,1-1.18-3.3,36.59,36.59,0,0,1-.19-4.36v-33H270a7.74,7.74,0,0,1-4.61-1.5q-2.35-2.35-2.36-9.08,0-10.22,7.34-10.21h4.11v-6.6a25.64,25.64,0,0,1,6.85-17.37Q288.2,0,301.15,0a35,35,0,0,1,4.3.19,10,10,0,0,1,3.3,1.18Q312.11,3,312.11,11q0,6-2.12,8.59a7.67,7.67,0,0,1-5.47,2.24H301q-4.61,0-4.61,3.11v6.85Z"/><path class="cls-1" d="M328.29,39.09q10.47-9.71,23.91-9.71A33.85,33.85,0,0,1,376,39q10.32,9.64,10.33,24.59A32.39,32.39,0,0,1,381,82a33.63,33.63,0,0,1-13,11.83,35.37,35.37,0,0,1-15.88,3.8,33.88,33.88,0,0,1-15.93-4,35.35,35.35,0,0,1-13-12,31.38,31.38,0,0,1-5.29-17.87Q317.84,48.8,328.29,39.09Zm15.57,33.55a13.17,13.17,0,0,0,8.09,3,13.55,13.55,0,0,0,8.22-3.11q4.11-3.1,4.1-9.21t-3.85-9.09a13.4,13.4,0,0,0-8.35-3,13,13,0,0,0-8.34,3.12q-3.86,3.11-3.86,9.15T343.86,72.64Z"/><path class="cls-1" d="M394.4,11a35,35,0,0,1,.19-4.3,11.23,11.23,0,0,1,1.06-3.3Q397.39,0,405.36,0q7.59,0,9.46,3.36A10,10,0,0,1,416,6.72a36.59,36.59,0,0,1,.19,4.36V68.72q0,4.48.75,5.67c.49.79,1.59,1.18,3.29,1.18a19.27,19.27,0,0,1,3.43.19,6.11,6.11,0,0,1,2.11,1c1.66,1.09,2.49,4,2.49,8.84q0,7.84-2.49,9.59-3.22,2.24-15.43.75-9.6-1.24-12.45-6.35-3.5-6.11-3.49-19.42Z"/><path class="cls-1" d="M455.59,18.74a5.28,5.28,0,0,1-3.3,2.55A21.35,21.35,0,0,1,446,22a21.37,21.37,0,0,1-6.29-.75,5.21,5.21,0,0,1-3.3-2.62,10.58,10.58,0,0,1-1.12-3.29,35,35,0,0,1-.19-4.3,34.71,34.71,0,0,1,.19-4.29,10.05,10.05,0,0,1,1.06-3.18Q438.1.25,446.07.25t9.46,3.36a10,10,0,0,1,1.18,3.3,34.82,34.82,0,0,1,.19,4.29,34.9,34.9,0,0,1-.19,4.3A10,10,0,0,1,455.59,18.74ZM435.11,41.83a34.71,34.71,0,0,1,.19-4.29,11.34,11.34,0,0,1,1.06-3.3Q438.1,31,446.07,31q6,0,8.46,2.12a6.84,6.84,0,0,1,2.24,5.35c.09.83.13,2,.13,3.61V85.65a34.9,34.9,0,0,1-.19,4.3,10,10,0,0,1-1.18,3.3q-1.62,3.24-9.59,3.23c-5.23,0-8.42-1.11-9.58-3.36a11.47,11.47,0,0,1-1.06-3.23,34.7,34.7,0,0,1-.19-4.36Z"/><path class="cls-1" d="M475.45,39.09q10.46-9.71,23.9-9.71A33.85,33.85,0,0,1,523.13,39q10.33,9.64,10.33,24.59A32.31,32.31,0,0,1,528.11,82a33.63,33.63,0,0,1-13,11.83,35.33,35.33,0,0,1-15.87,3.8,33.91,33.91,0,0,1-15.94-4,35.35,35.35,0,0,1-13-12A31.38,31.38,0,0,1,465,63.74Q465,48.8,475.45,39.09ZM491,72.64a13.19,13.19,0,0,0,8.09,3,13.55,13.55,0,0,0,8.22-3.11q4.11-3.1,4.11-9.21t-3.86-9.09a13.4,13.4,0,0,0-8.34-3,13,13,0,0,0-8.34,3.12Q487,57.52,487,63.56T491,72.64Z"/><path class="cls-1" d="M148.17,118.14a8.76,8.76,0,0,1,2.73.31,2.12,2.12,0,0,1,1.25,1,6.8,6.8,0,0,1,.52,2.93v18.33a12.41,12.41,0,0,1-3.6,8.78,12.08,12.08,0,0,1-9.18,3.81,11.07,11.07,0,0,1-5.54-1.37,11.67,11.67,0,0,1-3-2.14l-.38-.37a4.9,4.9,0,0,1-1.66-3,4.74,4.74,0,0,1,1.66-3,4.48,4.48,0,0,1,2.94-1.7,4.35,4.35,0,0,1,2.84,1.56,4.73,4.73,0,0,0,3.38,1.56,4,4,0,0,0,3-1.23,4.51,4.51,0,0,0,1.18-3.27v-17.7c0-1.9.32-3.11,1-3.65A4.44,4.44,0,0,1,148.17,118.14Z"/><path class="cls-1" d="M167.54,152.75a10.07,10.07,0,0,1-7.93-3.62,13,13,0,0,1-3.15-8.83V132a13.05,13.05,0,0,1,.07-1.65,4.46,4.46,0,0,1,.4-1.23c.44-.86,1.67-1.28,3.7-1.28,2.2,0,3.5.6,3.88,1.8a7.42,7.42,0,0,1,.28,2.41v8.29a4.06,4.06,0,0,0,1.11,3,4.62,4.62,0,0,0,6,0,4,4,0,0,0,1.16-3V132a13.4,13.4,0,0,1,.07-1.64,3.46,3.46,0,0,1,.45-1.25c.41-.82,1.62-1.23,3.64-1.23s3.21.42,3.65,1.28a4.46,4.46,0,0,1,.4,1.25,13.21,13.21,0,0,1,.07,1.63v16.76a12.69,12.69,0,0,1-.07,1.59,3.49,3.49,0,0,1-.45,1.21c-.47.82-1.69,1.23-3.64,1.23s-3.11-.38-3.56-1.14a3.79,3.79,0,0,1-.47-1.94,5,5,0,0,1-.85.95,12.21,12.21,0,0,1-1.28,1A6.34,6.34,0,0,1,167.54,152.75Z"/><path class="cls-1" d="M199,127.9a10,10,0,0,1,7.88,3.62,13,13,0,0,1,3.15,8.83v8.33a13.21,13.21,0,0,1-.07,1.63,4,4,0,0,1-.4,1.21c-.44.85-1.68,1.28-3.69,1.28-2.25,0-3.54-.59-3.89-1.75a7.78,7.78,0,0,1-.28-2.42V140.3a4,4,0,0,0-1.11-3,4.09,4.09,0,0,0-3-1.09,4.16,4.16,0,0,0-3,1.14,4,4,0,0,0-1.16,3v8.38a13.21,13.21,0,0,1-.07,1.63,3.13,3.13,0,0,1-.45,1.21c-.41.85-1.62,1.28-3.64,1.28s-3.21-.43-3.65-1.28a4.42,4.42,0,0,1-.4-1.26,13.11,13.11,0,0,1-.07-1.63V131.87a12.62,12.62,0,0,1,.07-1.58,3.42,3.42,0,0,1,.45-1.21c.44-.79,1.66-1.18,3.64-1.18s3.11.36,3.56,1.08a3.84,3.84,0,0,1,.47,1.94,4.68,4.68,0,0,1,.85-.94,8.81,8.81,0,0,1,1.28-1A6.24,6.24,0,0,1,199,127.9Z"/><path class="cls-1" d="M229.65,149.72q-1.8,2.37-5.73,2.37t-7.36-3.62a12.14,12.14,0,0,1,0-16.93,10.31,10.31,0,0,1,7.58-3.64,7,7,0,0,1,2.93.59,6.3,6.3,0,0,1,1.83,1.08,6.51,6.51,0,0,1,.78.93,2.86,2.86,0,0,1,1-2,4.15,4.15,0,0,1,2.67-.69,9.68,9.68,0,0,1,2.7.28,2,2,0,0,1,1.21,1,3.73,3.73,0,0,1,.43,1.2,15,15,0,0,1,.07,1.61v19.6a11.15,11.15,0,0,1-3.79,8.78,12.55,12.55,0,0,1-8.52,3.34,14.32,14.32,0,0,1-6.87-1.75c-2.18-1.17-3.26-2.22-3.26-3.17a4.49,4.49,0,0,1,1.42-3.27,12,12,0,0,1,1.39-1.37,1.88,1.88,0,0,1,1.16-.38,2.26,2.26,0,0,1,1.38.57,7.86,7.86,0,0,0,4.92,1.75,3.56,3.56,0,0,0,2.93-1.42,5.28,5.28,0,0,0,1.14-3.41ZM221.22,140a3.89,3.89,0,0,0,1.21,2.77,4,4,0,0,0,2.94,1.23,3.69,3.69,0,0,0,2.86-1.26,4,4,0,0,0,1.14-2.74,4.32,4.32,0,0,0-1.09-2.8,3.67,3.67,0,0,0-2.94-1.3,3.81,3.81,0,0,0-3,1.28A4.14,4.14,0,0,0,221.22,140Z"/><path class="cls-1" d="M270.25,117.5a2,2,0,0,1,1.25-1,10.34,10.34,0,0,1,4.78,0,2,2,0,0,1,1.26,1,3.75,3.75,0,0,1,.42,1.25,12.79,12.79,0,0,1,.08,1.63v28.27a12.79,12.79,0,0,1-.08,1.63,3.13,3.13,0,0,1-.45,1.21c-.47.85-1.8,1.28-4,1.28s-3.41-.78-3.66-2.32a7,7,0,0,1-5.54,2.27,10.52,10.52,0,0,1-7.77-3.72,12.48,12.48,0,0,1,0-17.35q3.54-3.74,7.75-3.74a6.64,6.64,0,0,1,5.44,2.37v-9.94a13.4,13.4,0,0,1,.07-1.64A3.86,3.86,0,0,1,270.25,117.5Zm-7.7,25.73a4,4,0,0,0,3,1.28,3.76,3.76,0,0,0,2.91-1.28,4.11,4.11,0,0,0,1.16-2.81,4.4,4.4,0,0,0-1.11-2.87,3.75,3.75,0,0,0-3-1.32,3.82,3.82,0,0,0-3,1.3,4.25,4.25,0,0,0-1.14,2.86A4,4,0,0,0,262.55,143.23Z"/><path class="cls-1" d="M298,130.55q.28-2.66,3.74-2.65a9.8,9.8,0,0,1,2.75.28,2,2,0,0,1,1.26,1,4.31,4.31,0,0,1,.42,1.26,13.11,13.11,0,0,1,.07,1.63v16.57a13.11,13.11,0,0,1-.07,1.63,4.42,4.42,0,0,1-.4,1.26q-.66,1.23-3.24,1.23a6.33,6.33,0,0,1-3.46-.64,2.6,2.6,0,0,1-1-1.87q-1.76,2.5-5.84,2.51t-7.6-3.74a12.45,12.45,0,0,1,0-17.35,10.52,10.52,0,0,1,7.74-3.72,7.41,7.41,0,0,1,2.94.57,5.15,5.15,0,0,1,2.69,2Zm-8.61,9.84a4,4,0,0,0,1.23,2.82,4,4,0,0,0,3,1.26,3.76,3.76,0,0,0,2.91-1.28,4.09,4.09,0,0,0,1.16-2.82,4.4,4.4,0,0,0-1.11-2.87,3.7,3.7,0,0,0-3-1.32,3.83,3.83,0,0,0-3,1.32A4.29,4.29,0,0,0,289.4,140.39Z"/><path class="cls-1" d="M335.84,128a10,10,0,0,1,7.88,3.6,12.89,12.89,0,0,1,3.15,8.8v8.34a13.21,13.21,0,0,1-.07,1.63,3.89,3.89,0,0,1-.45,1.25c-.41.82-1.62,1.23-3.64,1.23s-3.13-.41-3.6-1.23a3.48,3.48,0,0,1-.45-1.27,14.51,14.51,0,0,1-.07-1.71v-8.28a4.1,4.1,0,0,0-1.09-3,3.75,3.75,0,0,0-2.77-1.09,4.66,4.66,0,0,0-3,1,3.67,3.67,0,0,0-1.47,2.3v9.19a13.21,13.21,0,0,1-.07,1.63,3.89,3.89,0,0,1-.45,1.25c-.41.82-1.62,1.23-3.64,1.23s-3.21-.42-3.65-1.27a4.33,4.33,0,0,1-.4-1.23,13.24,13.24,0,0,1-.07-1.66V120.37a13.4,13.4,0,0,1,.07-1.64,3.67,3.67,0,0,1,.4-1.2c.44-.86,1.67-1.28,3.69-1.28s3.19.42,3.6,1.28a3.89,3.89,0,0,1,.45,1.25,13.21,13.21,0,0,1,.07,1.63v10.47A7,7,0,0,1,335.84,128Z"/><path class="cls-1" d="M374.71,137.39a5.78,5.78,0,0,1-1.44,4.31,4.52,4.52,0,0,1-3.2,1.39H358.85a2.59,2.59,0,0,0,1.56,2.23,6.23,6.23,0,0,0,3.13.9,13,13,0,0,0,4.31-.57l.52-.19a4.7,4.7,0,0,1,1.89-.52c1,0,1.88.71,2.6,2.13a5.24,5.24,0,0,1,.62,2.18q0,4.22-10.08,4.21a15.12,15.12,0,0,1-6.23-1.21,10.55,10.55,0,0,1-4.24-3.19,13.6,13.6,0,0,1-3-8.57,12.38,12.38,0,0,1,3.86-9.54,13.59,13.59,0,0,1,9.63-3.58q6.58,0,9.66,4.64A9.67,9.67,0,0,1,374.71,137.39Zm-10,1.39c1.2,0,1.8-.5,1.8-1.51a2.13,2.13,0,0,0-.83-1.75,3.66,3.66,0,0,0-2.37-.67,4.78,4.78,0,0,0-3.05,1.26,3.52,3.52,0,0,0-1.51,2.67Z"/><path class="cls-1" d="M401.84,137.39a5.74,5.74,0,0,1-1.45,4.31,4.48,4.48,0,0,1-3.19,1.39H386a2.59,2.59,0,0,0,1.56,2.23,6.2,6.2,0,0,0,3.13.9,12.94,12.94,0,0,0,4.3-.57l.52-.19a4.74,4.74,0,0,1,1.9-.52c1,0,1.88.71,2.6,2.13a5.24,5.24,0,0,1,.62,2.18q0,4.22-10.09,4.21a15.11,15.11,0,0,1-6.22-1.21,10.55,10.55,0,0,1-4.24-3.19,13.6,13.6,0,0,1-3-8.57,12.35,12.35,0,0,1,3.86-9.54,13.59,13.59,0,0,1,9.63-3.58q6.58,0,9.66,4.64A9.67,9.67,0,0,1,401.84,137.39Zm-10,1.39c1.2,0,1.8-.5,1.8-1.51a2.13,2.13,0,0,0-.83-1.75,3.66,3.66,0,0,0-2.37-.67,4.78,4.78,0,0,0-3.05,1.26,3.54,3.54,0,0,0-1.52,2.67Z"/></g></g></svg>